<svg width="32" height="32" viewBox="0 0 32 32" fill="none" xmlns="http://www.w3.org/2000/svg">
<path d="M14.6667 21.2H5.20008C3.80008 21.2 2.66675 20.0667 2.66675 18.6667V6.53333C2.66675 5.13333 3.80008 4 5.20008 4H25.4667C26.8667 4 28.0001 5.13333 28.0001 6.53333V13.3333" stroke="white" stroke-width="1.25" stroke-linecap="round" stroke-linejoin="round"/>
<path d="M17.5719 10.628C18.8079 11.864 18.8079 13.8693 17.5719 15.1067C16.3359 16.3427 14.3306 16.3427 13.0933 15.1067C11.8573 13.8707 11.8573 11.8653 13.0933 10.628C14.3306 9.39068 16.3359 9.39068 17.5719 10.628" stroke="white" stroke-width="1.25" stroke-linecap="round" stroke-linejoin="round"/>
<path d="M8.00008 17.3333H6.66675" stroke="white" stroke-width="1.25" stroke-linecap="round" stroke-linejoin="round"/>
<path d="M24.0001 8.00001H22.6667" stroke="white" stroke-width="1.25" stroke-linecap="round" stroke-linejoin="round"/>
<path d="M24.0001 28C21.0547 28 18.6667 25.6133 18.6667 22.668C18.6667 19.7827 21.1201 17.332 24.0054 17.3333C26.9481 17.336 29.3334 19.7227 29.3334 22.6667C29.3334 25.612 26.9467 28 24.0001 28" stroke="white" stroke-width="1.25" stroke-linecap="round" stroke-linejoin="round"/>
<path d="M25.6001 22.6667H23.4668V20.5333" stroke="white" stroke-width="1.25" stroke-linecap="round" stroke-linejoin="round"/>
</svg>
