<svg width="32" height="32" viewBox="0 0 32 32" fill="none" xmlns="http://www.w3.org/2000/svg">
<path fill-rule="evenodd" clip-rule="evenodd" d="M25.3333 27.3333H6.66667C5.19333 27.3333 4 26.14 4 24.6667V12.6667C4 11.1933 5.19333 10 6.66667 10H25.3333C26.8067 10 28 11.1933 28 12.6667V24.6667C28 26.14 26.8067 27.3333 25.3333 27.3333Z" stroke="white" stroke-width="1.5" stroke-linecap="round" stroke-linejoin="round"/>
<path d="M21.5652 10.0001V7.33341C21.5652 5.86008 20.3719 4.66675 18.8986 4.66675H13.1012C11.6279 4.66675 10.4346 5.86008 10.4346 7.33341V10.0001" stroke="white" stroke-width="1.5" stroke-linecap="round" stroke-linejoin="round"/>
<path d="M4 12.6667L12.468 18.2547C12.904 18.5427 13.4147 18.6961 13.9373 18.6961H18.0627C18.5853 18.6961 19.096 18.5427 19.532 18.2547L28 12.6667" stroke="white" stroke-width="1.5" stroke-linecap="round" stroke-linejoin="round"/>
</svg>
