<svg width="32" height="32" viewBox="0 0 32 32" fill="none" xmlns="http://www.w3.org/2000/svg">
<path d="M20.0003 12.6667H25.3337M23.2003 18.0001H20.0003M16.127 22.0001C15.8937 21.4147 15.5337 20.8894 15.071 20.4614C14.2883 19.7361 13.2617 19.3334 12.195 19.3334H10.4723C9.40566 19.3334 8.37899 19.7361 7.59633 20.4614C7.13366 20.8894 6.77366 21.4147 6.54033 22.0001M13.455 10.8788C14.6266 12.0503 14.6266 13.9498 13.455 15.1214C12.2834 16.293 10.3839 16.293 9.21235 15.1214C8.04078 13.9498 8.04078 12.0503 9.21235 10.8788C10.3839 9.70719 12.2834 9.70719 13.455 10.8788ZM2.66699 24.6667V7.38808C2.66699 5.88541 3.88566 4.66675 5.38833 4.66675H26.667C28.1403 4.66675 29.3337 5.86008 29.3337 7.33341V24.6667C29.3337 26.1401 28.1403 27.3334 26.667 27.3334H5.33366C3.86033 27.3334 2.66699 26.1401 2.66699 24.6667Z" stroke="white" stroke-width="1.25" stroke-linecap="round" stroke-linejoin="round"/>
</svg>
