<svg width="32" height="32" viewBox="0 0 32 32" fill="none" xmlns="http://www.w3.org/2000/svg">
<path fill-rule="evenodd" clip-rule="evenodd" d="M19.6293 27.6093C19.3793 27.8594 19.0403 28 18.6867 28H16V25.3133C16 24.9597 16.1406 24.6206 16.3907 24.3707L25.416 15.3387C25.8463 14.9083 26.43 14.6665 27.0387 14.6665C27.6473 14.6665 28.231 14.9083 28.6613 15.3387V15.3387C29.092 15.7688 29.3341 16.3526 29.3341 16.9613C29.3341 17.5701 29.092 18.1538 28.6613 18.584L19.6293 27.6093Z" stroke="white" stroke-width="1.25" stroke-linecap="round" stroke-linejoin="round"/>
<path d="M22.0854 18.6786L25.3254 21.9186" stroke="white" stroke-width="1.25" stroke-linecap="round" stroke-linejoin="round"/>
<path d="M27.624 19.62L28.824 20.82V20.82C29.4557 21.4529 29.4557 22.4777 28.824 23.1107L26.636 25.2987" stroke="white" stroke-width="1.25" stroke-linecap="round" stroke-linejoin="round"/>
<path d="M9.33325 12H17.3333" stroke="white" stroke-width="1.25" stroke-linecap="round" stroke-linejoin="round"/>
<path d="M9.33325 17.3334H14.6666" stroke="white" stroke-width="1.25" stroke-linecap="round" stroke-linejoin="round"/>
<path d="M12 28H8C5.79086 28 4 26.2091 4 24V8C4 5.79086 5.79086 4 8 4H24C26.2091 4 28 5.79086 28 8V10.6667" stroke="white" stroke-width="1.25" stroke-linecap="round" stroke-linejoin="round"/>
</svg>
