<svg width="32" height="32" viewBox="0 0 32 32" fill="none" xmlns="http://www.w3.org/2000/svg">
<path d="M17.334 11.9982H22.6695" stroke="white" stroke-width="1.25" stroke-linecap="round" stroke-linejoin="round"/>
<path d="M9.33057 11.6328L10.5564 12.7373L13.0241 10.515" stroke="white" stroke-width="1.25" stroke-linecap="round" stroke-linejoin="round"/>
<path d="M13.3323 26.671H10.6646C6.98113 26.671 3.99512 23.685 3.99512 20.0016V9.33046C3.99512 5.64702 6.98113 2.66101 10.6646 2.66101H21.3357C23.1045 2.66101 24.8009 3.36368 26.0517 4.61445C27.3024 5.86521 28.0051 7.56161 28.0051 9.33046V13.3321" stroke="white" stroke-width="1.25" stroke-linecap="round" stroke-linejoin="round"/>
<path d="M9.33057 18.3022L10.5564 19.4067L13.0241 17.1844" stroke="white" stroke-width="1.25" stroke-linecap="round" stroke-linejoin="round"/>
<path d="M18.668 18.5341V26.1378C18.6693 27.1687 20.7579 28.0049 23.3359 28.0049C25.9139 28.0049 28.0025 27.1687 28.0039 26.1378V18.5341" stroke="white" stroke-width="1.25" stroke-linecap="round" stroke-linejoin="round"/>
<path d="M18.6692 22.3359C18.6692 23.3669 20.7591 24.2031 23.3371 24.2031C25.9152 24.2031 28.0051 23.3669 28.0051 22.3359" stroke="white" stroke-width="1.25" stroke-linecap="round" stroke-linejoin="round"/>
<path d="M18.6693 18.534C18.6693 19.565 20.7592 20.4012 23.3372 20.4012C25.9153 20.4012 28.0039 19.565 28.0039 18.534C28.0039 17.5018 25.9126 16.6669 23.3359 16.6669C20.7592 16.6669 18.6693 17.5031 18.668 18.534" stroke="white" stroke-width="1.25" stroke-linecap="round" stroke-linejoin="round"/>
</svg>
