<svg width="32" height="32" viewBox="0 0 32 32" fill="none" xmlns="http://www.w3.org/2000/svg">
<path d="M25.3335 14H20.0801C18.1135 14 16.5188 12.4053 16.5188 10.4387V10.4387C16.5188 9.49468 16.8935 8.58801 17.5615 7.92001L20.6521 4.82935" stroke="white" stroke-width="1.25" stroke-linecap="round" stroke-linejoin="round"/>
<path d="M6.07753 22.1067L8.31487 18.7507C8.7202 18.1427 9.40153 17.7773 10.1322 17.7773V17.7773C10.9602 17.7773 11.7149 17.3107 12.0855 16.5693L12.2535 16.2347C12.5602 15.62 12.5602 14.896 12.2535 14.2813L10.8269 11.4293C10.4562 10.6893 9.7002 10.2227 8.8722 10.2227H3.32153" stroke="white" stroke-width="1.25" stroke-linecap="round" stroke-linejoin="round"/>
<path d="M25.3334 14C25.3334 7.72663 20.2734 2.66663 14.0001 2.66663C7.72675 2.66663 2.66675 7.72663 2.66675 14C2.66675 20.2733 7.72675 25.3333 14.0001 25.3333" stroke="white" stroke-width="1.25" stroke-linecap="round" stroke-linejoin="round"/>
<path fill-rule="evenodd" clip-rule="evenodd" d="M18.6667 21.6V25.8667C18.6667 27.0453 19.6214 28 20.8001 28H27.2001C28.3787 28 29.3334 27.0453 29.3334 25.8667V21.6C29.3334 20.4213 28.3787 19.4667 27.2001 19.4667H20.8001C19.6214 19.4667 18.6667 20.4213 18.6667 21.6Z" stroke="white" stroke-width="1.25" stroke-linecap="round" stroke-linejoin="round"/>
<path d="M29.3334 23.3333H18.6667" stroke="white" stroke-width="1.25" stroke-linecap="round" stroke-linejoin="round"/>
</svg>
