<svg width="32" height="32" viewBox="0 0 32 32" fill="none" xmlns="http://www.w3.org/2000/svg">
<path d="M18.0359 14.8333V13.036C18.0359 11.912 17.1239 11 15.9999 11V11C14.8759 11 13.9639 11.912 13.9639 13.036V14.8333" stroke="white" stroke-width="1.25" stroke-linecap="round" stroke-linejoin="round"/>
<path fill-rule="evenodd" clip-rule="evenodd" d="M18.3333 14.8347H13.6666C12.9306 14.8347 12.3333 15.432 12.3333 16.168V19C12.3333 19.736 12.9306 20.3334 13.6666 20.3334H18.3333C19.0693 20.3334 19.6666 19.736 19.6666 19V16.168C19.6666 15.432 19.0693 14.8347 18.3333 14.8347Z" stroke="white" stroke-width="1.25" stroke-linecap="round" stroke-linejoin="round"/>
<path fill-rule="evenodd" clip-rule="evenodd" d="M26.6666 14.9894C26.6666 20.8134 22.4573 26.272 16.6933 27.904C16.2426 28.032 15.7573 28.032 15.3066 27.904C9.54259 26.2734 5.33325 20.8134 5.33325 14.9894V9.6187C5.33325 8.53603 5.98792 7.56003 6.99059 7.1507L13.4759 4.49737C15.0946 3.8347 16.9079 3.8347 18.5253 4.49737L25.0106 7.1507C26.0119 7.56003 26.6666 8.53603 26.6666 9.6187V14.9894Z" stroke="white" stroke-width="1.25" stroke-linecap="round" stroke-linejoin="round"/>
</svg>
